<svg width="20" height="20" viewBox="0 0 20 20" fill="none" xmlns="http://www.w3.org/2000/svg">
<path d="M12.9498 0.460083C11.9898 0.160083 10.9898 0 9.93982 0C4.49982 0 0.0898438 4.41012 0.0898438 9.87012C0.0898438 15.3301 4.49982 19.7401 9.93982 19.7401C10.9998 19.7401 11.9998 19.58 12.9498 19.27C16.9298 18 19.8198 14.2701 19.8198 9.87012C19.8198 5.47012 16.9398 1.74008 12.9498 0.460083ZM9.93982 18.66C5.09982 18.66 1.15979 14.7001 1.15979 9.86011C1.15979 5.01011 5.09982 1.07007 9.93982 1.07007C10.3998 1.07007 10.8498 1.10004 11.3098 1.17004C8.19981 2.83004 6.09979 6.11011 6.09979 9.86011C6.09979 13.6201 8.19981 16.9 11.3098 18.55C10.8498 18.63 10.3998 18.66 9.93982 18.66Z" fill="#221F20"/>
</svg>
