<svg width="21" height="19" viewBox="0 0 21 19" fill="none" xmlns="http://www.w3.org/2000/svg">
<path d="M16.0204 1.69995L14.6504 2.08997C17.3804 3.47997 19.2303 6.21999 19.2303 9.35999C19.2303 12.5 17.3904 15.24 14.6504 16.63L16.0204 17.02C18.6204 15.36 20.3004 12.53 20.3004 9.35999C20.3004 6.15999 18.6004 3.35995 16.0204 1.69995Z" fill="#221F20"/>
<path d="M11.5502 17.6C12.1102 17.88 12.6802 18.1 13.2902 18.28C13.0502 18.35 12.8002 18.42 12.5502 18.47C12.4102 18.5 12.2801 18.52 12.1401 18.54C11.9001 18.6 11.6401 18.62 11.4001 18.63C11.0801 18.67 10.7701 18.6801 10.4401 18.6801C9.41006 18.6801 8.43012 18.53 7.50012 18.26C7.23012 18.18 6.97007 18.08 6.70007 17.99C6.44007 17.9 6.19006 17.78 5.94006 17.65C5.45006 17.41 4.98016 17.14 4.54016 16.83C4.31016 16.67 4.10015 16.51 3.90015 16.33C3.27015 15.82 2.73013 15.22 2.26013 14.58C1.19013 13.08 0.580078 11.29 0.580078 9.35999C0.580078 4.21999 4.99007 0.0400391 10.4501 0.0400391C10.7801 0.0400391 11.0902 0.0499658 11.4102 0.0899658C11.6502 0.0999658 11.9101 0.130054 12.1501 0.180054C12.2901 0.190054 12.4202 0.22 12.5602 0.25C12.8202 0.31 13.0602 0.369941 13.3002 0.439941C12.6902 0.619941 12.1202 0.829985 11.5602 1.10999C8.43018 2.65999 6.29016 5.77998 6.29016 9.34998C6.28016 12.95 8.42017 16.05 11.5502 17.6Z" fill="#221F20"/>
</svg>
